# xmcd
#
# Track frame offsets:
#	150
#	12112
#	32022
#	42598
#	55979
#	67942
#	81374
#	93359
#	106241
#	116534
#	129425
#	142640
#	154968
#	167652
#	184477
#	196319
#	211256
#	222787
#	235288
#	246229
#
# Disc length: 3463 seconds
#
# Revision: 0
# Processed by: cddbd v1.5.1PL2 Copyright (c) Steve Scherf et al.
# Submitted via: dBpowerAMP V4.0
#
DISCID=130d8514
DTITLE=Various Artist - Great Country Hits CD3
DYEAR=2002
DGENRE=Country
TTITLE0=Can't you hear me calling - Bill Monroe
TTITLE1=God bless the U.S.A - Lee Greenwood
TTITLE2=Should i go home - Jackson Stonewall
TTITLE3=In the Name of Love - Jennifer Weatherly
TTITLE4=Once a Day - Connie Smith
TTITLE5=Another sleepless Night - Anne Murray
TTITLE6=To see my Angel cry - Conway Twitty
TTITLE7=Where do we go from here - Don Williams
TTITLE8=White Lightnin' - Waylon Jennings
TTITLE9=The most beautiful Girl - Charly Rich
TTITLE10=Tennessee Waltz - Roy Accuf
TTITLE11=Cold Cold Heart - Hank Williams
TTITLE12=Ruben James - Kenny Rogers
TTITLE13=Sylvia's Mother - Bobby Bear
TTITLE14=Lodi - Justin Tubb
TTITLE15=Take me home Country Roads - Olivia Newton John
TTITLE16=No No Song - Hoyt Axton
TTITLE17=Older Woman make good Lovers - Ronnie McDowell
TTITLE18=It must be Love - Don Williams
TTITLE19=Keep on loving you - Porter Wagoner
EXTD=
EXTT0=
EXTT1=
EXTT2=
EXTT3=
EXTT4=
EXTT5=
EXTT6=
EXTT7=
EXTT8=
EXTT9=
EXTT10=
EXTT11=
EXTT12=
EXTT13=
EXTT14=
EXTT15=
EXTT16=
EXTT17=
EXTT18=
EXTT19=
PLAYORDER=
